<svg width="34" height="34" viewBox="0 0 34 34" fill="none" xmlns="http://www.w3.org/2000/svg">
<path fill-rule="evenodd" clip-rule="evenodd" d="M15.2213 3.51558C14.458 3.74278 14.1986 4.05073 14.139 4.25601C13.8172 5.36547 14.4908 6.55372 15.6124 6.84351C16.7876 7.14713 18.0976 6.2037 18.189 4.99626C18.2213 4.57004 18.2338 4.24497 18.2192 3.98584C18.2044 3.72557 18.165 3.60105 18.1394 3.54696C18.1256 3.51793 18.1161 3.50258 18.0685 3.47549C17.9979 3.43528 17.8327 3.36904 17.4907 3.3317C16.8126 3.25765 15.9378 3.30235 15.2213 3.51558ZM14.5723 1.31162C15.6294 0.997011 16.8155 0.945932 17.7376 1.04663C18.8062 1.16334 19.7342 1.57014 20.2027 2.55692C20.5831 3.35831 20.531 4.34665 20.4687 5.17068C20.2687 7.81292 17.5876 9.72703 15.0434 9.06968C12.6791 8.45883 11.2583 5.97665 11.9442 3.61243C12.3354 2.26422 13.5622 1.61227 14.5723 1.31162ZM25.4203 8.55368C24.6941 9.07711 24.4188 9.67681 24.4667 10.1351C24.5763 11.1856 25.4868 11.9789 26.7592 11.9789C28.0472 11.9789 28.9573 11.1776 29.0501 10.151C29.1123 9.46273 28.9827 8.93836 28.7636 8.5913C28.5609 8.27015 28.2305 8.01434 27.671 7.91929C27.0203 7.80871 26.1363 8.03758 25.4203 8.55368ZM24.0882 6.68565C25.1844 5.8955 26.6737 5.41871 28.052 5.65292C29.2116 5.84995 30.1235 6.45587 30.694 7.3598C31.2482 8.23781 31.4226 9.30186 31.327 10.3591C31.1041 12.8234 28.9578 14.2774 26.7592 14.2774C24.5449 14.2774 22.4471 12.8106 22.1929 10.375C22.026 8.77562 23.0021 7.46848 24.0882 6.68565ZM6.3093 14.3163C5.15603 14.5027 4.32699 14.9456 3.75276 15.9848C3.02093 17.3091 3.25595 18.3078 3.69484 20.1728C3.74981 20.4064 3.80797 20.6535 3.86783 20.9166C4.31237 22.8703 6.06983 24.9628 7.92261 26.6658C8.82086 27.4914 9.69021 28.1798 10.3356 28.6619C10.6577 28.9024 10.9223 29.0904 11.1047 29.2171C11.1959 29.2804 11.2664 29.3284 11.3132 29.3598L11.3334 29.3734C11.361 29.3874 11.4004 29.4072 11.4505 29.4317C11.5644 29.4875 11.7329 29.5677 11.9438 29.6611C12.3675 29.8488 12.9524 30.0856 13.6026 30.2864C14.2576 30.4887 14.9475 30.6447 15.5882 30.6889C16.2385 30.7338 16.7522 30.6575 17.119 30.4803C18.225 29.946 18.7437 29.11 19.0154 27.941C19.2545 26.9121 19.2787 25.7472 19.3066 24.4008C19.3131 24.0897 19.3198 23.769 19.3293 23.4381C19.4236 20.1725 19.3192 18.1592 17.3842 16.2461C15.5742 14.4566 13.7826 14.3391 10.7323 14.2772C10.3083 14.2686 9.90348 14.2544 9.51544 14.2408C8.30869 14.1985 7.26411 14.1619 6.3093 14.3163ZM10.7554 30.3669C10.1318 31.3302 10.1316 31.33 10.1314 31.3299L10.1238 31.3249L10.1058 31.313L10.0411 31.2697C9.98564 31.2324 9.90595 31.1782 9.80518 31.1082C9.60374 30.9682 9.31761 30.7649 8.97216 30.5069C8.28259 29.9918 7.34988 29.2537 6.37994 28.3622C4.49634 26.6308 2.25285 24.1263 1.63915 21.4292C1.58596 21.1954 1.52852 20.9602 1.47065 20.7233C1.03067 18.9216 0.565982 17.0188 1.75422 14.8685C2.75832 13.0515 4.30557 12.3122 5.94633 12.0469C7.14366 11.8533 8.50034 11.9022 9.75521 11.9474C10.1062 11.9601 10.4492 11.9725 10.7785 11.9791C13.7989 12.0405 16.4679 12.1165 18.9872 14.6072C21.6867 17.2761 21.7089 20.2383 21.6146 23.5048C21.6067 23.7797 21.6012 24.0624 21.5956 24.3502C21.5694 25.7071 21.5409 27.1762 21.2417 28.4639C20.8562 30.1224 19.9941 31.6414 18.1093 32.552C17.2523 32.9661 16.2968 33.0417 15.4316 32.982C14.5568 32.9216 13.685 32.7164 12.9312 32.4835C12.1727 32.2493 11.5018 31.977 11.022 31.7645C10.7811 31.6578 10.5858 31.565 10.4489 31.4979C10.3803 31.4643 10.3263 31.4371 10.2882 31.4177L10.2433 31.3945L10.2301 31.3877L10.226 31.3855L10.2245 31.3847C10.2242 31.3846 10.2234 31.3842 10.7554 30.3669ZM10.7554 30.3669L10.2234 31.3842L10.1764 31.3593L10.1314 31.3299L10.7554 30.3669ZM28.4097 19.4945C27.6497 20.068 27.2933 20.7382 27.2899 21.1816C27.2865 21.6451 27.2882 21.9124 27.3169 22.1142C27.3296 22.2029 27.3441 22.2496 27.3529 22.272C27.36 22.2901 27.3646 22.2958 27.3682 22.3001C27.3774 22.3111 27.4519 22.395 27.7526 22.5141C28.0562 22.6344 28.508 22.7592 29.1912 22.8986C29.6485 22.9918 30.0079 22.8324 30.2905 22.4623C30.5998 22.0571 30.7831 21.4145 30.6894 20.7348C30.6304 20.3064 30.6213 19.907 30.6142 19.5988L30.6141 19.5964C30.6064 19.2566 30.6001 19.0648 30.5744 18.9153C30.5707 18.8936 30.567 18.8761 30.5637 18.8624C30.5376 18.8527 30.4978 18.8403 30.44 18.8279C29.9585 18.7246 29.1638 18.9254 28.4097 19.4945ZM30.5514 18.8205C30.5508 18.8194 30.5506 18.8187 30.5506 18.8187ZM27.0372 17.6562C28.0824 16.8675 29.5465 16.2859 30.9173 16.5801C31.4243 16.6889 31.8986 16.9051 32.2612 17.3018C32.6205 17.6951 32.7628 18.1493 32.8272 18.5234C32.8845 18.8564 32.8925 19.2142 32.8987 19.4933C32.899 19.5103 32.8994 19.527 32.8998 19.5435C32.907 19.8602 32.9152 20.1373 32.9541 20.4195C33.1238 21.6519 32.8191 22.9251 32.1041 23.8617C31.3624 24.8334 30.1611 25.4417 28.7367 25.1512C28.0113 25.0033 27.405 24.847 26.9143 24.6525C26.4207 24.457 25.9645 24.1923 25.6199 23.7812C25.2626 23.3549 25.1165 22.8807 25.0538 22.4401C24.9971 22.0424 25.0005 21.5991 25.0035 21.1944L25.0038 21.1643C25.0147 19.7035 25.998 18.4405 27.0372 17.6562Z" fill="#4F46E5"/>
<path d="M10.1314 31.3299C10.1316 31.33 10.1318 31.3302 10.7554 30.3669M10.1314 31.3299L10.1764 31.3593L10.2234 31.3842L10.7554 30.3669M10.1314 31.3299L10.7554 30.3669M10.1314 31.3299L10.1238 31.3249L10.1058 31.313L10.0411 31.2697C9.98564 31.2324 9.90595 31.1782 9.80518 31.1082C9.60374 30.9682 9.31761 30.7649 8.97216 30.5069C8.28259 29.9918 7.34988 29.2537 6.37994 28.3622C4.49634 26.6308 2.25285 24.1263 1.63915 21.4292C1.58596 21.1954 1.52852 20.9602 1.47065 20.7233C1.03067 18.9216 0.565982 17.0188 1.75422 14.8685C2.75832 13.0515 4.30557 12.3122 5.94633 12.0469C7.14366 11.8533 8.50034 11.9022 9.75521 11.9474C10.1062 11.9601 10.4492 11.9725 10.7785 11.9791C13.7989 12.0405 16.4679 12.1165 18.9872 14.6072C21.6867 17.2761 21.7089 20.2383 21.6146 23.5048C21.6067 23.7797 21.6012 24.0624 21.5956 24.3502C21.5694 25.7071 21.5409 27.1762 21.2417 28.4639C20.8562 30.1224 19.9941 31.6414 18.1093 32.552C17.2523 32.9661 16.2968 33.0417 15.4316 32.982C14.5568 32.9216 13.685 32.7164 12.9312 32.4835C12.1727 32.2493 11.5018 31.977 11.022 31.7645C10.7811 31.6578 10.5858 31.565 10.4489 31.4979C10.3803 31.4643 10.3263 31.4371 10.2882 31.4177L10.2433 31.3945L10.2301 31.3877L10.226 31.3855L10.2245 31.3847C10.2242 31.3846 10.2234 31.3842 10.7554 30.3669M30.6058 18.8817C30.6057 18.8818 30.6042 18.881 30.6016 18.879M14.139 4.25601C14.1986 4.05073 14.458 3.74278 15.2213 3.51558C15.9378 3.30235 16.8126 3.25765 17.4907 3.3317C17.8327 3.36904 17.9979 3.43528 18.0685 3.47549C18.1161 3.50258 18.1256 3.51793 18.1394 3.54696C18.165 3.60105 18.2044 3.72557 18.2192 3.98584C18.2338 4.24497 18.2213 4.57004 18.189 4.99626C18.0976 6.2037 16.7876 7.14713 15.6124 6.84351C14.4908 6.55372 13.8172 5.36547 14.139 4.25601ZM17.7376 1.04663C16.8155 0.945932 15.6294 0.997011 14.5723 1.31162C13.5622 1.61227 12.3354 2.26422 11.9442 3.61243C11.2583 5.97665 12.6791 8.45883 15.0434 9.06968C17.5876 9.72703 20.2687 7.81292 20.4687 5.17068C20.531 4.34665 20.5831 3.35831 20.2027 2.55692C19.7342 1.57014 18.8062 1.16334 17.7376 1.04663ZM24.4667 10.1351C24.4188 9.67681 24.6941 9.07711 25.4203 8.55368C26.1363 8.03758 27.0203 7.80871 27.671 7.91929C28.2305 8.01434 28.5609 8.27015 28.7636 8.5913C28.9827 8.93836 29.1123 9.46273 29.0501 10.151C28.9573 11.1776 28.0472 11.9789 26.7592 11.9789C25.4868 11.9789 24.5763 11.1856 24.4667 10.1351ZM28.052 5.65292C26.6737 5.41871 25.1844 5.8955 24.0882 6.68565C23.0021 7.46848 22.026 8.77562 22.1929 10.375C22.4471 12.8106 24.5449 14.2774 26.7592 14.2774C28.9578 14.2774 31.1041 12.8234 31.327 10.3591C31.4226 9.30186 31.2482 8.23781 30.694 7.3598C30.1235 6.45587 29.2116 5.84995 28.052 5.65292ZM3.75276 15.9848C4.32699 14.9456 5.15603 14.5027 6.3093 14.3163C7.26411 14.1619 8.30869 14.1985 9.51544 14.2408C9.90348 14.2544 10.3083 14.2686 10.7323 14.2772C13.7826 14.3391 15.5742 14.4566 17.3842 16.2461C19.3192 18.1592 19.4236 20.1725 19.3293 23.4381C19.3198 23.769 19.3131 24.0897 19.3066 24.4008C19.2787 25.7472 19.2545 26.9121 19.0154 27.941C18.7437 29.11 18.225 29.946 17.119 30.4803C16.7522 30.6575 16.2385 30.7338 15.5882 30.6889C14.9475 30.6447 14.2576 30.4887 13.6026 30.2864C12.9524 30.0856 12.3675 29.8488 11.9438 29.6611C11.7329 29.5677 11.5644 29.4875 11.4505 29.4317C11.4004 29.4072 11.361 29.3874 11.3334 29.3734L11.3132 29.3598C11.2664 29.3284 11.1959 29.2804 11.1047 29.2171C10.9223 29.0904 10.6577 28.9024 10.3356 28.6619C9.69021 28.1798 8.82086 27.4914 7.92261 26.6658C6.06983 24.9628 4.31237 22.8703 3.86783 20.9166C3.80797 20.6535 3.74981 20.4064 3.69484 20.1728C3.25595 18.3078 3.02093 17.3091 3.75276 15.9848ZM27.2899 21.1816C27.2933 20.7382 27.6497 20.068 28.4097 19.4945C29.1638 18.9254 29.9585 18.7246 30.44 18.8279C30.4978 18.8403 30.5376 18.8527 30.5637 18.8624C30.567 18.8761 30.5707 18.8936 30.5744 18.9153C30.6001 19.0648 30.6064 19.2566 30.6141 19.5964L30.6142 19.5988C30.6213 19.907 30.6304 20.3064 30.6894 20.7348C30.7831 21.4145 30.5998 22.0571 30.2905 22.4623C30.0079 22.8324 29.6485 22.9918 29.1912 22.8986C28.508 22.7592 28.0562 22.6344 27.7526 22.5141C27.4519 22.395 27.3774 22.3111 27.3682 22.3001C27.3646 22.2958 27.36 22.2901 27.3529 22.272C27.3441 22.2496 27.3296 22.2029 27.3169 22.1142C27.2882 21.9124 27.2865 21.6451 27.2899 21.1816ZM30.5514 18.8205C30.5508 18.8194 30.5506 18.8187 30.5506 18.8187L30.5514 18.8205ZM30.9173 16.5801C29.5465 16.2859 28.0824 16.8675 27.0372 17.6562C25.998 18.4405 25.0147 19.7035 25.0038 21.1643L25.0035 21.1944C25.0005 21.5991 24.9971 22.0424 25.0538 22.4401C25.1165 22.8807 25.2626 23.3549 25.6199 23.7812C25.9645 24.1923 26.4207 24.457 26.9143 24.6525C27.405 24.847 28.0113 25.0033 28.7367 25.1512C30.1611 25.4417 31.3624 24.8334 32.1041 23.8617C32.8191 22.9251 33.1238 21.6519 32.9541 20.4195C32.9152 20.1373 32.907 19.8602 32.8998 19.5435C32.8994 19.527 32.899 19.5103 32.8987 19.4933C32.8925 19.2142 32.8845 18.8564 32.8272 18.5234C32.7628 18.1493 32.6205 17.6951 32.2612 17.3018C31.8986 16.9051 31.4243 16.6889 30.9173 16.5801Z" stroke="#4F46E5"/>
</svg>
