<svg width="163" height="34" viewBox="0 0 163 34" fill="none" xmlns="http://www.w3.org/2000/svg">
<path fill-rule="evenodd" clip-rule="evenodd" d="M15.2213 3.51558C14.458 3.74278 14.1986 4.05073 14.139 4.25601C13.8172 5.36547 14.4908 6.55372 15.6124 6.84351C16.7876 7.14713 18.0976 6.2037 18.189 4.99626C18.2213 4.57004 18.2338 4.24497 18.2192 3.98584C18.2044 3.72557 18.165 3.60105 18.1394 3.54696C18.1256 3.51793 18.1161 3.50258 18.0685 3.47549C17.9979 3.43528 17.8327 3.36904 17.4907 3.3317C16.8126 3.25765 15.9378 3.30235 15.2213 3.51558ZM14.5723 1.31162C15.6294 0.997011 16.8155 0.945932 17.7376 1.04663C18.8062 1.16334 19.7342 1.57014 20.2027 2.55692C20.5831 3.35831 20.531 4.34665 20.4687 5.17068C20.2687 7.81292 17.5876 9.72703 15.0434 9.06968C12.6791 8.45883 11.2583 5.97665 11.9442 3.61243C12.3354 2.26422 13.5622 1.61227 14.5723 1.31162ZM25.4203 8.55368C24.6941 9.07711 24.4188 9.67681 24.4667 10.1351C24.5763 11.1856 25.4868 11.9789 26.7592 11.9789C28.0472 11.9789 28.9573 11.1776 29.0501 10.151C29.1123 9.46273 28.9827 8.93836 28.7636 8.5913C28.5609 8.27015 28.2305 8.01434 27.671 7.91929C27.0203 7.80871 26.1363 8.03758 25.4203 8.55368ZM24.0882 6.68565C25.1844 5.8955 26.6737 5.41871 28.052 5.65292C29.2116 5.84995 30.1235 6.45587 30.694 7.3598C31.2482 8.23781 31.4226 9.30186 31.327 10.3591C31.1041 12.8234 28.9578 14.2774 26.7592 14.2774C24.5449 14.2774 22.4471 12.8106 22.1929 10.375C22.026 8.77562 23.0021 7.46848 24.0882 6.68565ZM6.3093 14.3163C5.15603 14.5027 4.32699 14.9456 3.75276 15.9848C3.02093 17.3091 3.25595 18.3078 3.69484 20.1728C3.74981 20.4064 3.80797 20.6535 3.86783 20.9166C4.31237 22.8703 6.06983 24.9628 7.92261 26.6658C8.82086 27.4914 9.69021 28.1798 10.3356 28.6619C10.6577 28.9024 10.9223 29.0904 11.1047 29.2171C11.1959 29.2804 11.2664 29.3284 11.3132 29.3598L11.3334 29.3734C11.361 29.3874 11.4004 29.4072 11.4505 29.4317C11.5644 29.4875 11.7329 29.5677 11.9438 29.6611C12.3675 29.8488 12.9524 30.0856 13.6026 30.2864C14.2576 30.4887 14.9475 30.6447 15.5882 30.6889C16.2385 30.7338 16.7522 30.6575 17.119 30.4803C18.225 29.946 18.7437 29.11 19.0154 27.941C19.2545 26.9121 19.2787 25.7472 19.3066 24.4008C19.3131 24.0897 19.3198 23.769 19.3293 23.4381C19.4236 20.1725 19.3192 18.1592 17.3842 16.2461C15.5742 14.4566 13.7826 14.3391 10.7323 14.2772C10.3083 14.2686 9.90348 14.2544 9.51544 14.2408C8.30869 14.1985 7.26411 14.1619 6.3093 14.3163ZM10.7554 30.3669C10.1318 31.3302 10.1316 31.33 10.1314 31.3299L10.1238 31.3249L10.1058 31.313L10.0411 31.2697C9.98564 31.2324 9.90595 31.1782 9.80518 31.1082C9.60374 30.9682 9.31761 30.7649 8.97216 30.5069C8.28259 29.9918 7.34988 29.2537 6.37994 28.3622C4.49634 26.6308 2.25285 24.1263 1.63915 21.4292C1.58596 21.1954 1.52852 20.9602 1.47065 20.7233C1.03067 18.9216 0.565982 17.0188 1.75422 14.8685C2.75832 13.0515 4.30557 12.3122 5.94633 12.0469C7.14366 11.8533 8.50034 11.9022 9.75521 11.9474C10.1062 11.9601 10.4492 11.9725 10.7785 11.9791C13.7989 12.0405 16.4679 12.1165 18.9872 14.6072C21.6867 17.2761 21.7089 20.2383 21.6146 23.5048C21.6067 23.7797 21.6012 24.0624 21.5956 24.3502C21.5694 25.7071 21.5409 27.1762 21.2417 28.4639C20.8562 30.1224 19.9941 31.6414 18.1093 32.552C17.2523 32.9661 16.2968 33.0417 15.4316 32.982C14.5568 32.9216 13.685 32.7164 12.9312 32.4835C12.1727 32.2493 11.5018 31.977 11.022 31.7645C10.7811 31.6578 10.5858 31.565 10.4489 31.4979C10.3803 31.4643 10.3263 31.4371 10.2882 31.4177L10.2433 31.3945L10.2301 31.3877L10.226 31.3855L10.2245 31.3847C10.2242 31.3846 10.2234 31.3842 10.7554 30.3669ZM10.7554 30.3669L10.2234 31.3842L10.1764 31.3593L10.1314 31.3299L10.7554 30.3669ZM28.4097 19.4945C27.6497 20.068 27.2933 20.7382 27.2899 21.1816C27.2865 21.6451 27.2882 21.9124 27.3169 22.1142C27.3296 22.2029 27.3441 22.2496 27.3529 22.272C27.36 22.2901 27.3646 22.2958 27.3682 22.3001C27.3774 22.3111 27.4519 22.395 27.7526 22.5141C28.0562 22.6344 28.508 22.7592 29.1912 22.8986C29.6485 22.9918 30.0079 22.8324 30.2905 22.4623C30.5998 22.0571 30.7831 21.4145 30.6894 20.7348C30.6304 20.3064 30.6213 19.907 30.6142 19.5988L30.6141 19.5964C30.6064 19.2566 30.6001 19.0648 30.5744 18.9153C30.5707 18.8936 30.567 18.8761 30.5637 18.8624C30.5376 18.8527 30.4978 18.8403 30.44 18.8279C29.9585 18.7246 29.1638 18.9254 28.4097 19.4945ZM30.5514 18.8205C30.5508 18.8194 30.5506 18.8187 30.5506 18.8187ZM27.0372 17.6562C28.0824 16.8675 29.5465 16.2859 30.9173 16.5801C31.4243 16.6889 31.8986 16.9051 32.2612 17.3018C32.6205 17.6951 32.7628 18.1493 32.8272 18.5234C32.8845 18.8564 32.8925 19.2142 32.8987 19.4933C32.899 19.5103 32.8994 19.527 32.8998 19.5435C32.907 19.8602 32.9152 20.1373 32.9541 20.4195C33.1238 21.6519 32.8191 22.9251 32.1041 23.8617C31.3624 24.8334 30.1611 25.4417 28.7367 25.1512C28.0113 25.0033 27.405 24.847 26.9143 24.6525C26.4207 24.457 25.9645 24.1923 25.6199 23.7812C25.2626 23.3549 25.1165 22.8807 25.0538 22.4401C24.9971 22.0424 25.0005 21.5991 25.0035 21.1944L25.0038 21.1643C25.0147 19.7035 25.998 18.4405 27.0372 17.6562Z" fill="#4F46E5"/>
<path d="M10.1314 31.3299C10.1316 31.33 10.1318 31.3302 10.7554 30.3669M10.1314 31.3299L10.1764 31.3593L10.2234 31.3842L10.7554 30.3669M10.1314 31.3299L10.7554 30.3669M10.1314 31.3299L10.1238 31.3249L10.1058 31.313L10.0411 31.2697C9.98564 31.2324 9.90595 31.1782 9.80518 31.1082C9.60374 30.9682 9.31761 30.7649 8.97216 30.5069C8.28259 29.9918 7.34988 29.2537 6.37994 28.3622C4.49634 26.6308 2.25285 24.1263 1.63915 21.4292C1.58596 21.1954 1.52852 20.9602 1.47065 20.7233C1.03067 18.9216 0.565982 17.0188 1.75422 14.8685C2.75832 13.0515 4.30557 12.3122 5.94633 12.0469C7.14366 11.8533 8.50034 11.9022 9.75521 11.9474C10.1062 11.9601 10.4492 11.9725 10.7785 11.9791C13.7989 12.0405 16.4679 12.1165 18.9872 14.6072C21.6867 17.2761 21.7089 20.2383 21.6146 23.5048C21.6067 23.7797 21.6012 24.0624 21.5956 24.3502C21.5694 25.7071 21.5409 27.1762 21.2417 28.4639C20.8562 30.1224 19.9941 31.6414 18.1093 32.552C17.2523 32.9661 16.2968 33.0417 15.4316 32.982C14.5568 32.9216 13.685 32.7164 12.9312 32.4835C12.1727 32.2493 11.5018 31.977 11.022 31.7645C10.7811 31.6578 10.5858 31.565 10.4489 31.4979C10.3803 31.4643 10.3263 31.4371 10.2882 31.4177L10.2433 31.3945L10.2301 31.3877L10.226 31.3855L10.2245 31.3847C10.2242 31.3846 10.2234 31.3842 10.7554 30.3669M30.6058 18.8817C30.6057 18.8818 30.6042 18.881 30.6016 18.879M14.139 4.25601C14.1986 4.05073 14.458 3.74278 15.2213 3.51558C15.9378 3.30235 16.8126 3.25765 17.4907 3.3317C17.8327 3.36904 17.9979 3.43528 18.0685 3.47549C18.1161 3.50258 18.1256 3.51793 18.1394 3.54696C18.165 3.60105 18.2044 3.72557 18.2192 3.98584C18.2338 4.24497 18.2213 4.57004 18.189 4.99626C18.0976 6.2037 16.7876 7.14713 15.6124 6.84351C14.4908 6.55372 13.8172 5.36547 14.139 4.25601ZM17.7376 1.04663C16.8155 0.945932 15.6294 0.997011 14.5723 1.31162C13.5622 1.61227 12.3354 2.26422 11.9442 3.61243C11.2583 5.97665 12.6791 8.45883 15.0434 9.06968C17.5876 9.72703 20.2687 7.81292 20.4687 5.17068C20.531 4.34665 20.5831 3.35831 20.2027 2.55692C19.7342 1.57014 18.8062 1.16334 17.7376 1.04663ZM24.4667 10.1351C24.4188 9.67681 24.6941 9.07711 25.4203 8.55368C26.1363 8.03758 27.0203 7.80871 27.671 7.91929C28.2305 8.01434 28.5609 8.27015 28.7636 8.5913C28.9827 8.93836 29.1123 9.46273 29.0501 10.151C28.9573 11.1776 28.0472 11.9789 26.7592 11.9789C25.4868 11.9789 24.5763 11.1856 24.4667 10.1351ZM28.052 5.65292C26.6737 5.41871 25.1844 5.8955 24.0882 6.68565C23.0021 7.46848 22.026 8.77562 22.1929 10.375C22.4471 12.8106 24.5449 14.2774 26.7592 14.2774C28.9578 14.2774 31.1041 12.8234 31.327 10.3591C31.4226 9.30186 31.2482 8.23781 30.694 7.3598C30.1235 6.45587 29.2116 5.84995 28.052 5.65292ZM3.75276 15.9848C4.32699 14.9456 5.15603 14.5027 6.3093 14.3163C7.26411 14.1619 8.30869 14.1985 9.51544 14.2408C9.90348 14.2544 10.3083 14.2686 10.7323 14.2772C13.7826 14.3391 15.5742 14.4566 17.3842 16.2461C19.3192 18.1592 19.4236 20.1725 19.3293 23.4381C19.3198 23.769 19.3131 24.0897 19.3066 24.4008C19.2787 25.7472 19.2545 26.9121 19.0154 27.941C18.7437 29.11 18.225 29.946 17.119 30.4803C16.7522 30.6575 16.2385 30.7338 15.5882 30.6889C14.9475 30.6447 14.2576 30.4887 13.6026 30.2864C12.9524 30.0856 12.3675 29.8488 11.9438 29.6611C11.7329 29.5677 11.5644 29.4875 11.4505 29.4317C11.4004 29.4072 11.361 29.3874 11.3334 29.3734L11.3132 29.3598C11.2664 29.3284 11.1959 29.2804 11.1047 29.2171C10.9223 29.0904 10.6577 28.9024 10.3356 28.6619C9.69021 28.1798 8.82086 27.4914 7.92261 26.6658C6.06983 24.9628 4.31237 22.8703 3.86783 20.9166C3.80797 20.6535 3.74981 20.4064 3.69484 20.1728C3.25595 18.3078 3.02093 17.3091 3.75276 15.9848ZM27.2899 21.1816C27.2933 20.7382 27.6497 20.068 28.4097 19.4945C29.1638 18.9254 29.9585 18.7246 30.44 18.8279C30.4978 18.8403 30.5376 18.8527 30.5637 18.8624C30.567 18.8761 30.5707 18.8936 30.5744 18.9153C30.6001 19.0648 30.6064 19.2566 30.6141 19.5964L30.6142 19.5988C30.6213 19.907 30.6304 20.3064 30.6894 20.7348C30.7831 21.4145 30.5998 22.0571 30.2905 22.4623C30.0079 22.8324 29.6485 22.9918 29.1912 22.8986C28.508 22.7592 28.0562 22.6344 27.7526 22.5141C27.4519 22.395 27.3774 22.3111 27.3682 22.3001C27.3646 22.2958 27.36 22.2901 27.3529 22.272C27.3441 22.2496 27.3296 22.2029 27.3169 22.1142C27.2882 21.9124 27.2865 21.6451 27.2899 21.1816ZM30.5514 18.8205C30.5508 18.8194 30.5506 18.8187 30.5506 18.8187L30.5514 18.8205ZM30.9173 16.5801C29.5465 16.2859 28.0824 16.8675 27.0372 17.6562C25.998 18.4405 25.0147 19.7035 25.0038 21.1643L25.0035 21.1944C25.0005 21.5991 24.9971 22.0424 25.0538 22.4401C25.1165 22.8807 25.2626 23.3549 25.6199 23.7812C25.9645 24.1923 26.4207 24.457 26.9143 24.6525C27.405 24.847 28.0113 25.0033 28.7367 25.1512C30.1611 25.4417 31.3624 24.8334 32.1041 23.8617C32.8191 22.9251 33.1238 21.6519 32.9541 20.4195C32.9152 20.1373 32.907 19.8602 32.8998 19.5435C32.8994 19.527 32.899 19.5103 32.8987 19.4933C32.8925 19.2142 32.8845 18.8564 32.8272 18.5234C32.7628 18.1493 32.6205 17.6951 32.2612 17.3018C31.8986 16.9051 31.4243 16.6889 30.9173 16.5801Z" stroke="#4F46E5"/>
<path d="M44.2642 26V11.4545H50.0028C51.1061 11.4545 52.0459 11.6652 52.8224 12.0866C53.599 12.5033 54.1908 13.0833 54.598 13.8267C55.0099 14.5653 55.2159 15.4176 55.2159 16.3835C55.2159 17.3494 55.0076 18.2017 54.5909 18.9403C54.1742 19.679 53.5705 20.2543 52.7798 20.6662C51.9938 21.0781 51.0421 21.2841 49.9247 21.2841H46.267V18.8196H49.4276C50.0194 18.8196 50.5071 18.7178 50.8906 18.5142C51.2789 18.3059 51.5677 18.0194 51.7571 17.6548C51.9512 17.2855 52.0483 16.8617 52.0483 16.3835C52.0483 15.9006 51.9512 15.4792 51.7571 15.1193C51.5677 14.7547 51.2789 14.473 50.8906 14.2741C50.5024 14.0705 50.0099 13.9688 49.4134 13.9688H47.3395V26H44.2642ZM59.3744 26.206C58.6784 26.206 58.0581 26.0852 57.5136 25.8438C56.9691 25.5975 56.5383 25.2353 56.221 24.7571C55.9085 24.2741 55.7523 23.6728 55.7523 22.9531C55.7523 22.3471 55.8635 21.8381 56.0861 21.4261C56.3086 21.0142 56.6116 20.6828 56.9952 20.4318C57.3787 20.1809 57.8143 19.9915 58.302 19.8636C58.7944 19.7358 59.3105 19.6458 59.8503 19.5938C60.4848 19.5275 60.9961 19.4659 61.3844 19.4091C61.7726 19.3475 62.0544 19.2576 62.2295 19.1392C62.4047 19.0208 62.4923 18.8456 62.4923 18.6136V18.571C62.4923 18.1212 62.3503 17.7732 62.0662 17.527C61.7868 17.2808 61.3891 17.1577 60.873 17.1577C60.3285 17.1577 59.8953 17.2784 59.5733 17.5199C59.2513 17.7566 59.0383 18.0549 58.9341 18.4148L56.1358 18.1875C56.2778 17.5246 56.5572 16.9517 56.9739 16.4688C57.3905 15.9811 57.9279 15.607 58.5861 15.3466C59.249 15.0814 60.016 14.9489 60.8872 14.9489C61.4933 14.9489 62.0733 15.0199 62.6273 15.1619C63.186 15.304 63.6808 15.5241 64.1116 15.8224C64.5473 16.1207 64.8905 16.5043 65.1415 16.973C65.3924 17.437 65.5179 17.9934 65.5179 18.642V26H62.6486V24.4872H62.5634C62.3882 24.8281 62.1538 25.1288 61.8602 25.3892C61.5667 25.6449 61.2139 25.8461 60.802 25.9929C60.3901 26.1349 59.9142 26.206 59.3744 26.206ZM60.2409 24.1179C60.686 24.1179 61.079 24.0303 61.4199 23.8551C61.7608 23.6752 62.0283 23.4337 62.2224 23.1307C62.4166 22.8277 62.5136 22.4844 62.5136 22.1009V20.9432C62.4189 21.0047 62.2887 21.0616 62.123 21.1136C61.962 21.161 61.7797 21.206 61.5761 21.2486C61.3725 21.2865 61.1689 21.322 60.9653 21.3551C60.7617 21.3835 60.5771 21.4096 60.4114 21.4332C60.0562 21.4853 59.7461 21.5682 59.481 21.6818C59.2158 21.7955 59.0098 21.9493 58.8631 22.1435C58.7163 22.3329 58.6429 22.5696 58.6429 22.8537C58.6429 23.2656 58.792 23.5805 59.0903 23.7983C59.3934 24.0114 59.7769 24.1179 60.2409 24.1179ZM69.4172 26L66.4484 15.0909H69.5095L71.1999 22.4205H71.2993L73.0607 15.0909H76.0649L77.8547 22.3778H77.947L79.6089 15.0909H82.6629L79.7013 26H76.4982L74.6232 19.1392H74.4882L72.6132 26H69.4172ZM96.5675 16.5469H93.4567C93.3999 16.1444 93.2839 15.7869 93.1087 15.4744C92.9335 15.1572 92.7086 14.8873 92.434 14.6648C92.1594 14.4422 91.8422 14.2718 91.4823 14.1534C91.1272 14.035 90.7413 13.9759 90.3246 13.9759C89.5718 13.9759 88.916 14.1629 88.3573 14.5369C87.7986 14.9062 87.3654 15.446 87.0576 16.1562C86.7498 16.8617 86.596 17.7187 86.596 18.7273C86.596 19.7642 86.7498 20.6354 87.0576 21.3409C87.3701 22.0464 87.8057 22.5791 88.3644 22.9389C88.9231 23.2988 89.5694 23.4787 90.3033 23.4787C90.7153 23.4787 91.0964 23.4242 91.4468 23.3153C91.8019 23.2064 92.1168 23.0478 92.3914 22.8395C92.666 22.6264 92.8933 22.3684 93.0732 22.0653C93.2579 21.7623 93.3857 21.4167 93.4567 21.0284L96.5675 21.0426C96.4871 21.7102 96.2858 22.3542 95.9639 22.9744C95.6466 23.59 95.2181 24.1416 94.6783 24.6293C94.1433 25.1122 93.5041 25.4957 92.7607 25.7798C92.0221 26.0592 91.1864 26.1989 90.2536 26.1989C88.9563 26.1989 87.7962 25.9053 86.7735 25.3182C85.7555 24.7311 84.9506 23.8812 84.3587 22.7685C83.7716 21.6558 83.4781 20.3087 83.4781 18.7273C83.4781 17.1411 83.7764 15.7917 84.3729 14.679C84.9695 13.5663 85.7792 12.7187 86.8019 12.1364C87.8246 11.5492 88.9752 11.2557 90.2536 11.2557C91.0964 11.2557 91.8777 11.3741 92.5974 11.6108C93.3218 11.8475 93.9634 12.1932 94.5221 12.6477C95.0808 13.0975 95.5353 13.6491 95.8857 14.3026C96.2408 14.956 96.4681 15.7041 96.5675 16.5469ZM103.045 26.2131C101.942 26.2131 100.988 25.9787 100.183 25.5099C99.3826 25.0365 98.7647 24.3783 98.329 23.5355C97.8934 22.688 97.6756 21.7055 97.6756 20.5881C97.6756 19.4612 97.8934 18.4763 98.329 17.6335C98.7647 16.786 99.3826 16.1278 100.183 15.6591C100.988 15.1856 101.942 14.9489 103.045 14.9489C104.148 14.9489 105.1 15.1856 105.9 15.6591C106.705 16.1278 107.325 16.786 107.761 17.6335C108.196 18.4763 108.414 19.4612 108.414 20.5881C108.414 21.7055 108.196 22.688 107.761 23.5355C107.325 24.3783 106.705 25.0365 105.9 25.5099C105.1 25.9787 104.148 26.2131 103.045 26.2131ZM103.059 23.8693C103.561 23.8693 103.98 23.7273 104.316 23.4432C104.652 23.1544 104.906 22.7614 105.076 22.2642C105.251 21.767 105.339 21.2012 105.339 20.5668C105.339 19.9323 105.251 19.3665 105.076 18.8693C104.906 18.3722 104.652 17.9792 104.316 17.6903C103.98 17.4015 103.561 17.2571 103.059 17.2571C102.553 17.2571 102.126 17.4015 101.781 17.6903C101.44 17.9792 101.182 18.3722 101.007 18.8693C100.836 19.3665 100.751 19.9323 100.751 20.5668C100.751 21.2012 100.836 21.767 101.007 22.2642C101.182 22.7614 101.44 23.1544 101.781 23.4432C102.126 23.7273 102.553 23.8693 103.059 23.8693ZM112.807 19.6932V26H109.782V15.0909H112.665V17.0156H112.793C113.034 16.3812 113.439 15.8793 114.007 15.5099C114.576 15.1359 115.265 14.9489 116.074 14.9489C116.832 14.9489 117.492 15.1146 118.056 15.446C118.619 15.7775 119.057 16.2509 119.37 16.8665C119.682 17.4773 119.838 18.2064 119.838 19.054V26H116.813V19.5938C116.818 18.9261 116.647 18.4053 116.301 18.0312C115.956 17.6525 115.48 17.4631 114.874 17.4631C114.467 17.4631 114.107 17.5507 113.794 17.7259C113.487 17.901 113.245 18.1567 113.07 18.4929C112.9 18.8243 112.812 19.2244 112.807 19.6932ZM124.649 19.6932V26H121.623V15.0909H124.507V17.0156H124.634C124.876 16.3812 125.281 15.8793 125.849 15.5099C126.417 15.1359 127.106 14.9489 127.916 14.9489C128.673 14.9489 129.334 15.1146 129.897 15.446C130.461 15.7775 130.899 16.2509 131.211 16.8665C131.524 17.4773 131.68 18.2064 131.68 19.054V26H128.654V19.5938C128.659 18.9261 128.489 18.4053 128.143 18.0312C127.797 17.6525 127.321 17.4631 126.715 17.4631C126.308 17.4631 125.948 17.5507 125.636 17.7259C125.328 17.901 125.087 18.1567 124.911 18.4929C124.741 18.8243 124.653 19.2244 124.649 19.6932ZM138.436 26.2131C137.314 26.2131 136.348 25.9858 135.538 25.5312C134.733 25.072 134.113 24.4233 133.677 23.5852C133.242 22.7424 133.024 21.7457 133.024 20.5952C133.024 19.473 133.242 18.4882 133.677 17.6406C134.113 16.7931 134.726 16.1326 135.517 15.6591C136.312 15.1856 137.245 14.9489 138.315 14.9489C139.035 14.9489 139.705 15.0649 140.325 15.2969C140.95 15.5241 141.495 15.8674 141.959 16.3267C142.427 16.786 142.792 17.3636 143.052 18.0597C143.313 18.7509 143.443 19.5606 143.443 20.4886V21.3196H134.231V19.4446H140.595C140.595 19.009 140.5 18.6231 140.311 18.2869C140.122 17.9508 139.859 17.688 139.523 17.4986C139.191 17.3045 138.805 17.2074 138.365 17.2074C137.906 17.2074 137.499 17.3139 137.143 17.527C136.793 17.7353 136.518 18.017 136.32 18.3722C136.121 18.7225 136.019 19.1132 136.014 19.544V21.3267C136.014 21.8665 136.114 22.3329 136.312 22.7259C136.516 23.1188 136.802 23.4219 137.172 23.6349C137.541 23.848 137.979 23.9545 138.486 23.9545C138.822 23.9545 139.13 23.9072 139.409 23.8125C139.688 23.7178 139.927 23.5758 140.126 23.3864C140.325 23.197 140.477 22.965 140.581 22.6903L143.379 22.875C143.237 23.5473 142.946 24.1345 142.506 24.6364C142.07 25.1335 141.507 25.5218 140.815 25.8011C140.129 26.0758 139.336 26.2131 138.436 26.2131ZM149.747 26.2131C148.629 26.2131 147.668 25.9763 146.863 25.5028C146.063 25.0246 145.447 24.3617 145.016 23.5142C144.59 22.6667 144.377 21.6913 144.377 20.5881C144.377 19.4706 144.593 18.4905 145.024 17.6477C145.459 16.8002 146.077 16.1397 146.877 15.6662C147.677 15.188 148.629 14.9489 149.732 14.9489C150.684 14.9489 151.517 15.1217 152.232 15.4673C152.947 15.813 153.513 16.2983 153.93 16.9233C154.346 17.5483 154.576 18.2822 154.619 19.125H151.764C151.683 18.5805 151.47 18.1425 151.124 17.8111C150.783 17.4749 150.336 17.3068 149.782 17.3068C149.313 17.3068 148.904 17.4347 148.553 17.6903C148.208 17.9413 147.938 18.3082 147.744 18.7912C147.55 19.2741 147.452 19.8589 147.452 20.5455C147.452 21.2415 147.547 21.8333 147.737 22.321C147.931 22.8087 148.203 23.1804 148.553 23.4361C148.904 23.6918 149.313 23.8196 149.782 23.8196C150.128 23.8196 150.438 23.7486 150.712 23.6065C150.992 23.4645 151.221 23.2585 151.401 22.9886C151.586 22.714 151.707 22.3849 151.764 22.0014H154.619C154.571 22.8348 154.344 23.5687 153.937 24.2031C153.534 24.8329 152.978 25.3253 152.268 25.6804C151.558 26.0355 150.717 26.2131 149.747 26.2131ZM161.758 15.0909V17.3636H155.189V15.0909H161.758ZM156.68 12.4773H159.706V22.6477C159.706 22.9271 159.748 23.1449 159.834 23.3011C159.919 23.4527 160.037 23.5592 160.189 23.6207C160.345 23.6823 160.525 23.7131 160.729 23.7131C160.871 23.7131 161.013 23.7012 161.155 23.6776C161.297 23.6491 161.406 23.6278 161.481 23.6136L161.957 25.8651C161.806 25.9124 161.593 25.9669 161.318 26.0284C161.043 26.0947 160.71 26.1349 160.317 26.1491C159.587 26.1776 158.948 26.0805 158.399 25.858C157.854 25.6354 157.431 25.2898 157.128 24.821C156.825 24.3523 156.676 23.7604 156.68 23.0455V12.4773Z" fill="#1A1A1A"/>
</svg>
